#!OML:ASF F:\VICON\USERDATA\INSTALL\Justin_Nancy\Justin_Nancy.ASF
:FULLY-SPECIFIED
:DEGREES
286
root -5.04997 17.4641 8.42514 -2.42113 -46.5227 2.77058
lowerback 6.46767 -1.17923 -2.66364
upperback 0.24003 -1.69945 2.29263
thorax -3.23225 -0.794729 4.02808
lowerneck -15.9187 -3.69552 -10.5651
upperneck 22.6067 -3.71457 4.88953
head 10.1415 -2.1139 2.98577
rclavicle 4.65653e-014 -1.59028e-014
rhumerus -39.9753 -20.0171 -72.258
rradius 26.2708
rwrist 8.74984
rhand -13.0935 12.1944
rfingers 7.12502
rthumb 13.003 -17.3804
lclavicle 4.65653e-014 -1.59028e-014
lhumerus -27.7315 6.20998 83.7648
lradius 32.0413
lwrist -9.64824
lhand -21.0217 23.2646
lfingers 7.12502
lthumb 5.35337 53.177
rfemur -19.535 3.35749 22.6103
rtibia 22.7343
rfoot -1.96832 -0.250789
rtoes 4.87191
lfemur -0.734736 -4.10558 -22.6497
ltibia 45.212
lfoot 16.8669 -19.7948
ltoes -2.72332
287
root -5.17579 17.4875 8.52231 -1.97716 -46.4442 1.96236
lowerback 6.61332 -1.17331 -2.20538
upperback 0.277342 -1.65499 2.49649
thorax -3.28605 -0.778545 3.98128
lowerneck -16.2189 -3.76479 -10.4314
upperneck 22.7293 -3.74019 4.59624
head 10.2377 -2.14586 2.85339
rclavicle 2.48978e-014 -3.65764e-014
rhumerus -39.8284 -20.3256 -72.0066
rradius 26.1778
rwrist 9.51511
rhand -12.9666 12.7215
rfingers 7.12502
rthumb 13.1254 -16.8455
lclavicle 2.48978e-014 -3.65764e-014
lhumerus -27.9022 5.93758 84.1015
lradius 32.0292
lwrist -9.19094
lhand -20.7063 23.1274
lfingers 7.12502
lthumb 5.65795 53.0319
rfemur -18.4899 3.06511 23.4062
rtibia 22.0935
rfoot -1.72385 0.245328
rtoes 5.65943
lfemur -2.10851 -4.28302 -21.7893
ltibia 47.5583
lfoot 19.6923 -20.2212
ltoes 1.41071
288
root -5.29534 17.5063 8.6126 -1.32716 -46.2709 1.10179
lowerback 6.65791 -1.23965 -1.6738
upperback 0.25837 -1.69863 2.69641
thorax -3.33635 -0.806807 3.89477
lowerneck -16.2876 -3.84168 -10.6113
upperneck 22.6888 -3.84313 4.81005
head 10.2531 -2.18171 2.94467
rclavicle -1.11816e-014 0
rhumerus -39.5314 -19.6922 -72.3649
rradius 26.3469
rwrist 8.9892
rhand -12.5692 13.6858
rfingers 7.12502
rthumb 13.5085 -15.8561
lclavicle -1.11816e-014 0
lhumerus -28.054 5.88141 84.3214
lradius 32.0283
lwrist -8.84824
lhand -20.6463 23.1856
lfingers 7.12502
lthumb 5.71588 53.0885
rfemur -17.6096 2.93707 24.1996
rtibia 21.377
rfoot -1.52883 0.346751
rtoes 5.78383
lfemur -3.77974 -4.2513 -20.8095
ltibia 49.9565
lfoot 22.1348 -20.8188
ltoes 3.64088
289
root -5.41669 17.5213 8.68892 -0.574764 -46.5043 0.0706043
lowerback 6.89989 -1.23565 -1.32591
upperback 0.160952 -1.6554 3.07086
thorax -3.5756 -0.78452 4.09558
lowerneck -16.3569 -3.82348 -10.8622
upperneck 22.8012 -3.79561 5.00797
head 10.3125 -2.16075 3.06538
rclavicle -2.67365e-014 -2.38542e-015
rhumerus -39.2322 -18.4817 -72.8564
rradius 26.6689
rwrist 8.28618
rhand -12.5635 13.3056
rfingers 7.12502
rthumb 13.514 -16.2359
lclavicle -2.67365e-014 -2.38542e-015
lhumerus -28.4779 6.29299 84.5294
lradius 32.0351
lwrist -8.79587
lhand -20.9241 23.1962
lfingers 7.12502
lthumb 5.44765 53.1061
rfemur -16.7768 3.34239 25.1507
rtibia 20.7918
rfoot -1.51521 0.0272938
rtoes 5.83837
lfemur -5.46028 -3.75859 -19.6253
ltibia 52.3015
lfoot 24.6602 -20.5912
ltoes 8.11442
290
root -5.54189 17.542 8.7782 -0.475945 -46.8625 -0.184103
lowerback 7.15427 -1.14146 -1.41464
upperback 0.00024632 -1.52825 3.23339
thorax -3.88915 -0.711211 4.31644
lowerneck -16.0536 -3.70688 -10.9906
upperneck 22.8861 -3.64883 5.03926
head 10.2757 -2.10889 3.12219
rclavicle -3.762e-014 1.59028e-015
rhumerus -39.1185 -17.5587 -73.1088
rradius 26.7612
rwrist 7.82286
rhand -13.0682 12.6588
rfingers 7.12502
rthumb 13.0275 -16.9144
lclavicle -3.762e-014 1.59028e-015
lhumerus -29.0036 6.55388 84.6681
lradius 31.8586
lwrist -8.86741
lhand -20.6283 23.1596
lfingers 7.12502
lthumb 5.73325 53.0621
rfemur -15.8711 3.52788 25.5175
rtibia 20.3692
rfoot -1.67851 0.101169
rtoes 6.1599
lfemur -6.86945 -3.3235 -19.2119
ltibia 54.5111
lfoot 26.3259 -19.8926
ltoes 10.97
